<?xml version="1.0" standalone="no"?>
<!DOCTYPE svg PUBLIC "-//W3C//DTD SVG 20010904//EN"
 "http://www.w3.org/TR/2001/REC-SVG-20010904/DTD/svg10.dtd">
<svg version="1.0" xmlns="http://www.w3.org/2000/svg"
 width="225.000000pt" height="225.000000pt" viewBox="0 0 225.000000 225.000000"
 preserveAspectRatio="xMidYMid meet">

<g transform="translate(0.000000,225.000000) scale(0.100000,-0.100000)"
fill="#000000" stroke="none">
<path d="M920 2130 c-308 -65 -575 -280 -706 -565 -221 -485 -24 -1061 449
-1310 161 -85 326 -121 515 -113 143 7 254 34 381 94 502 237 717 828 485
1332 -131 287 -399 499 -708 563 -119 25 -300 24 -416 -1z m391 -56 c328 -62
610 -306 718 -621 106 -313 42 -656 -174 -916 -194 -234 -530 -367 -830 -328
-398 52 -706 324 -811 716 -28 104 -25 350 4 458 47 171 136 320 263 443 141
134 287 211 475 248 95 19 255 19 355 0z"/>
<path d="M946 2044 c-88 -19 -184 -56 -261 -99 -174 -98 -320 -262 -396 -444
-92 -221 -90 -499 6 -715 90 -204 281 -392 481 -474 125 -52 206 -67 354 -67
202 0 343 42 505 150 269 179 417 473 402 800 -7 143 -30 234 -92 360 -125
253 -357 432 -637 489 -96 20 -269 20 -362 0z m-153 -494 c52 -20 103 -63 126
-107 6 -12 11 -44 11 -72 l0 -50 -36 6 c-30 5 -39 2 -62 -25 -15 -16 -42 -35
-60 -41 -30 -9 -36 -8 -58 17 -13 15 -31 40 -40 55 -13 24 -20 28 -42 22 -55
-13 -92 -71 -92 -142 0 -55 50 -150 109 -207 28 -28 53 -47 56 -44 3 3 -4 26
-15 51 -25 57 -55 173 -64 250 -6 49 -5 58 10 64 11 4 20 1 22 -7 14 -40 178
-186 299 -265 35 -23 46 -25 58 -15 25 21 17 67 -26 145 l-41 75 161 0 c146 0
166 2 226 25 74 28 125 55 125 68 0 4 -113 7 -252 6 -160 0 -254 3 -256 9 -1
5 25 13 60 17 75 9 106 23 164 77 l44 40 10 -28 c6 -15 8 -40 5 -56 l-7 -28
85 0 c46 0 111 -3 143 -6 l59 -6 53 51 c29 28 55 51 58 51 3 0 4 -24 2 -54
l-3 -54 76 -16 c41 -9 81 -22 87 -28 16 -16 15 -97 -1 -175 -14 -67 -15 -66
41 -25 18 14 35 22 39 18 10 -10 -16 -85 -58 -166 -130 -252 -349 -372 -649
-357 -195 10 -345 56 -487 149 -192 125 -283 278 -283 473 0 95 30 167 99 236
88 87 192 111 304 69z"/>
<path d="M1602 1304 l-11 -35 57 7 c119 15 144 36 62 53 -84 18 -95 16 -108
-25z"/>
</g>
</svg>
